<?xml version="1.0" encoding="utf-8"?>
<svg xmlns="http://www.w3.org/2000/svg" xmlns:xlink="http://www.w3.org/1999/xlink" version= "1.1" width="720px" height="1502px" viewBox="0 0 720 1502">
<g id="layer1">
<g>
<g style="fill:rgb(0,0,0); fill-opacity:1.0; stroke-linejoin: miter">
<path d="M379.97513,331.08762Q379.08557,331.08762,377.8725,331.16846Q376.65942,331.24936,375.6081,331.4111Q375.44635,332.3007,375.36548,333.43286Q375.36548,334.56506,375.36548,335.45465Q375.36548,336.34424,375.44635,337.4764Q375.44635,338.6086,375.6081,339.57904Q376.65942,339.74078,377.8725,339.82166Q379.08557,339.90253,380.05597,339.90253Q380.94556,339.90253,382.15863,339.82166Q383.29083,339.74078,384.26126,339.57904Q384.423,338.6086,384.5039,337.4764Q384.5039,336.34424,384.5039,335.45465Q384.5039,334.56506,384.423,333.43286Q384.423,332.3007,384.26126,331.4111Q383.29083,331.24936,382.07776,331.16846Q380.86472,331.08762,379.97513,331.08762 Z M303.87567,354.1358Q306.3827,354.1358,308.24274,355.10623Q310.02188,355.99582,311.23492,357.53235Q312.36713,359.0689,313.0141,361.17157Q313.5802,363.19333,313.5802,365.4577L293.11987,365.4577Q293.68597,360.12024,296.3547,357.12802Q298.94257,354.1358,303.87567,354.1358 Z M331.45264,348.39398Q330.48218,348.39398,329.26913,348.47482Q328.0561,348.55573,326.9239,348.71744L343.01715,390.2042Q343.9876,390.36588,345.03894,390.44678Q346.0094,390.52765,346.899,390.52765Q347.78854,390.52765,348.83987,390.44678Q349.89117,390.36588,350.9425,390.2042L367.11664,348.71744Q365.9845,348.55573,364.8523,348.47482Q363.7201,348.39398,362.8305,348.39398Q361.77917,348.39398,360.647,348.47482Q359.51483,348.55573,358.62524,348.71744L347.22244,382.92578L335.90054,348.71744Q335.01096,348.55573,333.71704,348.47482Q332.50397,348.39398,331.45264,348.39398 Z M372.13065,348.71744Q371.9689,349.3644,371.88806,350.254Q371.8072,351.0627,371.8072,351.8714Q371.8072,352.6801,371.88806,353.5697Q371.9689,354.37842,372.13065,355.02536L377.38727,355.02536L377.38727,390.2042Q378.27686,390.36588,379.40903,390.44678Q380.46033,390.52765,381.26904,390.52765Q382.15863,390.52765,383.29083,390.44678Q384.34216,390.36588,385.23175,390.2042L385.23175,348.71744 Z M266.756,330.60242Q265.86642,330.60242,264.73425,330.68326Q263.68292,330.76413,262.79333,330.92587L262.79333,379.44833Q262.79333,382.6832,263.68292,384.8667Q264.5725,387.05023,266.10904,388.34412Q267.64557,389.6381,269.66736,390.2042Q271.68915,390.77026,274.03436,390.77026Q275.40918,390.77026,277.0266,390.60852Q278.644,390.52765,279.7762,390.1233Q279.7762,386.8076,279.04837,383.9771Q278.4014,384.13885,277.43097,384.21973Q276.54138,384.3006,275.81354,384.3006Q274.7622,384.3006,273.79175,384.05798Q272.9022,383.89627,272.17435,383.16843Q271.5274,382.52142,271.12305,381.2275Q270.7187,379.93356,270.7187,377.6692L270.7187,330.92587Q269.8291,330.76413,268.6969,330.68326Q267.64557,330.60242,266.756,330.60242 Z M407.06683,338.44687L393.15704,353.97406L393.48053,355.10623L399.78845,355.10623L399.78845,378.63965Q399.78845,385.19016,403.10413,388.02066Q406.339,390.85114,412.16168,390.85114Q414.18347,390.85114,415.9626,390.60852Q417.74176,390.44678,419.3592,390.04242Q419.3592,388.7485,419.19745,387.05023Q419.11658,385.3519,418.55048,383.73453Q417.58002,383.9771,416.367,384.21973Q415.15393,384.38147,413.7791,384.38147Q411.99994,384.38147,410.78687,383.9771Q409.65472,383.65363,408.92688,382.52142Q408.2799,381.47012,407.95642,379.44833Q407.7138,377.4266,407.7138,374.03L407.7138,355.10623L418.227,355.10623Q418.38873,354.29752,418.4696,353.48883Q418.55048,352.6801,418.55048,351.79053Q418.55048,350.09225,418.227,348.71744L407.7138,348.71744L407.7138,338.44687 Z M304.11832,347.747Q299.1043,347.747,295.38428,349.52615Q291.7451,351.22446,289.31897,354.21664Q286.89282,357.12802,285.67978,361.17157Q284.5476,365.13422,284.5476,369.74387Q284.5476,374.43436,285.76065,378.39703Q286.9737,382.27884,289.64246,385.19016Q292.23032,388.02066,296.27386,389.6381Q300.31738,391.17462,305.97833,391.17462Q309.86014,391.17462,313.09497,390.60852Q316.24893,390.04242,318.91766,388.91025Q318.8368,387.21194,318.43243,385.4328Q318.02808,383.73453,317.38113,382.52142Q312.20538,384.5432,306.46356,384.5432Q299.91302,384.5432,296.51648,381.38925Q293.20074,378.2353,293.039,371.44214L321.2629,371.44214Q321.34378,370.55255,321.42465,369.2586Q321.50552,368.04556,321.50552,366.9134Q321.50552,362.789,320.37335,359.23065Q319.24115,355.7532,317.05765,353.1653Q314.8741,350.65836,311.6393,349.20267Q308.40445,347.747,304.11832,347.747 Z M426.07147,348.47482Q425.101,348.47482,423.9688,348.55573Q422.83667,348.55573,421.78534,348.71744L435.5334,390.2042Q436.09943,390.28503,436.989,390.36588L438.68732,390.36588Q439.3343,390.36588,440.06213,390.28503L441.35608,390.28503L438.84906,398.1295Q438.2021,400.0704,437.47424,401.20258Q436.82727,402.33478,436.01855,402.98172Q435.20984,403.54785,434.23944,403.79047Q433.34985,403.9522,432.29852,403.9522Q430.84283,403.9522,429.5489,403.62872Q428.33588,403.3861,427.60803,403.14346Q426.96106,404.59915,426.63757,406.05484Q426.3141,407.5105,426.3141,409.37054Q427.6889,409.7749,429.5489,410.0984Q431.32806,410.34097,433.1881,410.34097Q435.69507,410.34097,437.636,409.7749Q439.49603,409.2088,441.03253,407.834Q442.5691,406.4592,443.78217,404.1948Q444.99524,401.93042,446.12744,398.61472L462.2207,348.71744Q461.08856,348.55573,459.95636,348.47482L457.93457,348.47482Q455.67023,348.47482,453.97186,348.71744L442.08386,387.29282L430.60022,348.71744Q429.71063,348.55573,428.41675,348.47482 Z"/>
</g>
</g>
</g>
<g id="layer2">
<g style="fill:rgb(254,254,254); fill-opacity:1.0; stroke-linejoin: miter">
<path d="M300.50342,329.75186L300.27582,329.75436Q295.52582,329.96265,292.73068,331.70517Q291.57886,332.5742,289.48383,345.76758Q286.38998,345.86572,284.83887,347.08667Q281.33344,350.0721,280.57968,352.21457Q279.3773,355.55145,278.99936,369.52032Q279.12888,379.03787,280.28064,383.6048Q281.28937,388.38293,284.51074,391.72073Q287.8865,394.11536,291.72882,393.5027Q294.3475,397.78436,297.9896,399.62006Q303.0274,402.00583,308.69318,398.4358Q310.31348,399.07767,311.477,399.14502Q312.22836,399.91913,313.39832,400.49115Q314.88852,401.22943,316.69696,401.38788L318.43878,402.4136Q319.03714,402.63107,320.08655,402.6574Q326.13565,401.80817,328.5963,398.63464Q329.15536,398.07236,329.7165,395.2854Q330.12988,393.34494,330.13074,390.27545Q330.7549,389.0444,330.75586,388.22586Q331.07852,386.98898,329.7385,384.6537Q329.45575,382.24188,328.778,378.79437Q329.40878,375.15594,328.4229,369.67923Q325.6823,354.22058,324.6799,351.03595Q323.76627,347.6862,323.0283,346.04514Q322.25052,344.19943,321.39816,343.52917Q320.0517,339.5283,319.3825,338.24664Q318.6501,336.45532,317.1199,334.99002Q315.59164,333.2347,312.12595,333.61102Q309.46704,333.89514,307.43045,336.88132Q307.32162,334.49548,307.19424,333.94177Q307.06256,333.25327,306.10214,332.06845Q304.43484,329.96106,300.50342,329.75186"/>
</g>
<g style="fill:rgb(254,254,254); fill-opacity:1.0; stroke-linejoin: miter">
<path d="M381.87015,326.89078L381.8006,326.89102Q380.87842,326.90625,379.95844,327.04666Q378.34918,327.33542,377.66187,327.5933Q377.10925,327.6805,374.45398,329.2673Q372.95288,330.19037,371.90143,331.29208Q371.5683,331.5396,370.57715,333.0452Q370.22006,333.66306,369.97534,334.32562Q369.185,338.12628,371.33978,340.17603Q373.70575,342.41016,378.27002,342.3793Q379.49356,342.39862,382.91516,341.56207Q384.0865,341.21368,385.12604,340.46204Q386.6332,339.3829,387.5183,337.9372Q388.04752,337.0778,388.7201,334.86444Q389.12103,333.28342,388.80096,332.03262Q388.40573,330.2647,387.45294,329.14664L386.9675,328.65588Q386.46518,328.19513,385.89545,327.85443Q385.32568,327.51373,384.68854,327.2931Q383.41418,326.8518,381.87015,326.89078"/>
</g>
</g>
<g id="layer3">
<g style="fill:rgb(0,0,0); fill-opacity:1.0; stroke-linejoin: miter">
<path d="M305.1687,342.78268L304.4408,342.7986Q295.9856,343.42212,290.6108,350.11197Q283.3517,361.04202,283.43265,371.10214Q283.83002,380.3622,289.70462,385.79504Q295.40582,390.95267,304.6691,390.87445Q310.46094,390.65805,315.31522,388.6595Q318.62662,387.46997,324.9555,382.69305Q319.92816,386.31708,310.97394,386.21307Q302.01422,385.96738,297.27844,381.93744Q293.13223,378.14825,293.51544,372.34515Q293.8582,367.20813,298.85635,360.03516Q299.34152,359.14426,303.6225,355.64142Q305.09726,354.62158,306.58347,354.75327Q310.2276,355.39233,313.13556,357.2432Q314.90576,358.17123,316.7907,361.31494L317.9801,363.43192Q318.0064,363.48627,317.94675,363.58398Q316.49585,365.43622,313.74753,366.54822Q311.37326,367.43558,309.4365,367.79413L299.62372,369.3882L298.0192,369.53015Q296.53433,369.78143,296.0645,370.4489Q295.71045,370.5853,294.94485,370.46542Q299.98657,372.63013,307.20166,373.35727Q315.74115,374.12338,321.0999,371.1467Q326.7093,367.90436,326.52542,362.59482Q326.48505,359.2901,324.40155,355.02808Q322.85956,351.84012,320.0723,349.264Q312.65494,342.725,305.1687,342.78268"/>
</g>
<g style="fill:rgb(0,0,0); fill-opacity:1.0; stroke-linejoin: miter">
<path d="M382.21674,322.48853L382.139,322.47Q378.71396,321.78662,375.33316,324.27005Q372.335,326.54382,371.19754,330.7018Q370.37003,335.15543,371.88153,338.1665Q374.14337,341.5271,377.44067,342.37164Q381.0603,343.14786,383.83304,341.6087Q387.16336,339.59937,387.96695,336.58878Q388.44305,334.2937,387.12415,332.3503Q386.1073,330.7654,382.96353,329.29205Q385.18173,330.23648,386.06042,332.53592Q386.84705,334.75873,385.51764,336.37662Q383.44965,338.46655,380.92612,338.49344Q379.62512,338.42087,378.37546,337.7069Q377.41718,336.85217,377.15018,336.1266Q376.88788,335.30692,376.46692,334.4205Q376.351,334.09787,376.26202,333.7213Q375.92102,331.87155,376.00507,331.46606Q376.3739,328.601,377.7107,327.035Q379.40353,325.11032,381.36548,324.63608Q382.02707,324.498,382.7642,324.58334Q383.83615,324.7302,385.19302,325.25922Q385.37866,325.362,385.8636,325.10733Q385.95334,325.10184,386.0762,325.21347Q384.56015,323.11945,382.21674,322.48853"/>
</g>
<g style="fill:rgb(0,0,0); fill-opacity:1.0; stroke-linejoin: miter">
<path d="M287.42947,397.19977L287.23517,397.2002Q280.73492,397.50995,276.30084,400.1572Q272.05148,402.50385,271.0015,406.8891Q269.61676,418.53,282.47168,422.2055Q286.59433,423.52228,292.95438,424.48257Q295.91904,424.9628,299.29935,425.09692L304.72803,425.8546Q305.69824,425.96558,313.5834,426.45224Q316.68774,426.7062,324.39996,426.7213Q328.8153,427.0279,329.69077,427.00272L339.48093,427.10028Q342.64893,427.34427,344.9664,427.38196L352.86084,427.42386Q358.89038,427.67886,372.2044,427.80865L376.7104,427.98865Q379.02448,428.03354,385.5819,428.02325Q402.36383,427.9567,405.8261,427.66327L414.92255,426.75766Q418.042,426.29733,420.263,425.37473Q425.20093,423.8089,424.6435,419.78378Q424.02167,417.00024,417.18213,415.50186Q412.2824,414.47308,405.1187,414.21576Q405.12347,414.15652,400.29254,414.59555Q396.4699,414.6909,394.71838,414.86136Q392.69257,415.0122,391.08475,415.5317Q391.02838,415.57574,391.57687,415.56955Q393.1023,416.14822,394.34665,416.3091L399.96582,416.98462L405.4438,417.2716L410.09097,418.04675Q416.02097,419.1001,419.3048,420.5755Q417.0092,421.4627,414.58887,421.65536L412.92856,421.819Q408.881,421.9012,404.05884,422.32544Q399.45435,422.44537,384.7895,422.4059L359.89288,422.09723Q352.88644,421.8061,344.71686,421.78152L338.33246,421.53253L328.43454,421.39343Q326.36148,421.18277,324.285,421.12137L315.70026,420.96295Q314.3777,420.93472,306.11197,420.36417Q305.5338,420.3926,300.01898,419.5321L296.3943,419.29227Q292.0485,418.7053,289.16327,418.1403Q283.77576,417.13065,280.11264,415.2272Q276.49252,413.51917,276.27423,410.0632Q275.81293,406.54727,278.7013,405.11072Q280.00757,404.24695,284.7928,402.98822Q285.51852,402.7875,287.5794,402.79245L289.95508,402.86127L294.49426,403.87122Q295.83252,404.11325,299.31833,404.35226Q305.312,404.7993,322.8976,404.94006Q326.83224,405.23944,329.45898,405.30072Q351.58203,406.934,359.51953,407.9301Q363.15457,407.9398,367.63336,408.22748Q368.47095,408.3225,382.13235,408.07275Q386.95563,408.2151,389.31647,408.16138Q391.60205,408.1605,401.3935,407.77823Q413.6776,407.69003,414.41693,407.61282Q418.2118,407.49747,421.00375,407.13965Q421.873,407.09995,423.10547,407.25256Q423.98706,407.2332,421.64795,406.33594Q410.73907,404.85178,403.16522,404.29828Q399.77722,404.023,389.29,403.59018L381.8856,403.13052Q380.347,403.0324,368.5961,402.7116Q364.75934,402.44806,363.56635,402.41965L359.83875,402.3458Q352.18423,401.37323,329.90524,399.71915Q328.06262,399.6897,322.72375,399.35995Q306.05447,399.32703,301.86942,398.98837Q295.9179,398.63538,290.64377,397.32193Q290.2896,397.22095,287.42947,397.19977"/>
</g>
</g>
<g id="layer4">
</g>
</svg>