<svg id="Capa_1" data-name="Capa 1" xmlns="http://www.w3.org/2000/svg" viewBox="0 0 218 119"><defs><style>.cls-1{fill:#fefefe;}</style></defs><title>Mesa de trabajo 1</title><g id="layer1"><path d="M129,16.2c-.6,0-1.3,0-2.11.08s-1.56.13-2.26.24a17.54,17.54,0,0,0-.24,2v2c0,.6,0,1.27.08,2a12.62,12.62,0,0,0,.16,2.1c.7.11,1.45.19,2.26.24s1.54.08,2.19.08,1.29,0,2.1-.08a21,21,0,0,0,2.1-.24,21,21,0,0,0,.24-2.1v-2c0-.59,0-1.26-.08-2a11.18,11.18,0,0,0-.16-2,20.74,20.74,0,0,0-2.18-.24C130.27,16.22,129.57,16.2,129,16.2ZM52.88,39.25a9.25,9.25,0,0,1,4.36,1,8.62,8.62,0,0,1,3,2.42A12,12,0,0,1,62,46.28a15.76,15.76,0,0,1,.57,4.29H42.12a14.54,14.54,0,0,1,3.23-8.33C47.08,40.24,49.59,39.25,52.88,39.25ZM80.45,33.5c-.64,0-1.37,0-2.18.09s-1.59.13-2.35.24L92,75.31c.64.11,1.32.19,2,.25s1.27.08,1.86.08,1.24,0,1.94-.08,1.4-.14,2.1-.25l16.18-41.48c-.76-.11-1.51-.19-2.27-.24s-1.43-.09-2-.09-1.43,0-2.18.09a17.27,17.27,0,0,0-2,.24L96.22,68,84.9,33.83a17.85,17.85,0,0,0-2.18-.24C81.91,33.53,81.15,33.5,80.45,33.5Zm40.68.33a9.48,9.48,0,0,0-.24,1.53,14.64,14.64,0,0,0-.08,1.62,16.77,16.77,0,0,0,.08,1.7,9.67,9.67,0,0,0,.24,1.46h5.26V75.31a19.53,19.53,0,0,0,2,.25c.7,0,1.32.08,1.86.08s1.27,0,2-.08,1.35-.14,1.94-.25V33.83ZM15.76,15.71c-.6,0-1.27,0-2,.08s-1.34.14-1.94.25V64.56A14.49,14.49,0,0,0,12.68,70a8.78,8.78,0,0,0,2.43,3.47,9.13,9.13,0,0,0,3.56,1.86,16,16,0,0,0,4.36.57,29.66,29.66,0,0,0,3-.16,10,10,0,0,0,2.75-.49,24.79,24.79,0,0,0-.73-6.14,9.69,9.69,0,0,1-1.62.24c-.59,0-1.13.08-1.62.08a8.4,8.4,0,0,1-2-.24,3.12,3.12,0,0,1-1.62-.89,4.71,4.71,0,0,1-1.05-1.94,12.41,12.41,0,0,1-.4-3.56V16a19.89,19.89,0,0,0-2-.25C17,15.74,16.35,15.71,15.76,15.71Zm140.31,7.85L142.16,39.08l.32,1.14h6.31V63.75q0,6.56,3.31,9.38T161.16,76a28.36,28.36,0,0,0,3.8-.24,22.54,22.54,0,0,0,3.4-.57c0-.86-.05-1.86-.16-3a11.85,11.85,0,0,0-.65-3.32c-.65.17-1.37.33-2.18.49a19.26,19.26,0,0,1-2.59.16,9.53,9.53,0,0,1-3-.4,3.23,3.23,0,0,1-1.86-1.46,8.46,8.46,0,0,1-1-3.07,45.66,45.66,0,0,1-.25-5.42V40.22h10.52c.1-.54.19-1.08.24-1.62s.08-1.11.08-1.7a13.72,13.72,0,0,0-.32-3.07H156.71V23.56ZM53.12,32.86a20,20,0,0,0-8.74,1.78,16.84,16.84,0,0,0-6.06,4.69,19.44,19.44,0,0,0-3.64,7,31.27,31.27,0,0,0-1.13,8.57,29.43,29.43,0,0,0,1.21,8.66A17.31,17.31,0,0,0,45.27,74.75,27.49,27.49,0,0,0,55,76.28a41,41,0,0,0,7.11-.56A27,27,0,0,0,67.92,74a20.66,20.66,0,0,0-.49-3.48,12.32,12.32,0,0,0-1.05-2.91,29.69,29.69,0,0,1-10.92,2q-6.54,0-9.94-3.15T42,56.55H70.26c.06-.59.11-1.32.16-2.18s.09-1.59.09-2.35a25,25,0,0,0-1.14-7.68,17.78,17.78,0,0,0-3.31-6.06,15.43,15.43,0,0,0-5.42-4A18.18,18.18,0,0,0,53.12,32.86Zm122,.73c-.65,0-1.35,0-2.1.08a14,14,0,0,0-2.18.16l13.74,41.48c.38.06.87.11,1.46.17h1.7a13.35,13.35,0,0,0,1.37-.08h1.3l-2.51,7.84a13.58,13.58,0,0,1-1.38,3.07A6,6,0,0,1,185,88.09a5.23,5.23,0,0,1-1.78.81,10.65,10.65,0,0,1-1.94.16,11.58,11.58,0,0,1-2.75-.32,14.55,14.55,0,0,1-1.94-.49,14.49,14.49,0,0,0-1.3,6.23,30.75,30.75,0,0,0,3.24.73,27.25,27.25,0,0,0,3.64.24,16.26,16.26,0,0,0,4.45-.56,8.93,8.93,0,0,0,3.39-2,13.06,13.06,0,0,0,2.75-3.63,38,38,0,0,0,2.35-5.59l16.09-49.89c-.75-.11-1.51-.19-2.26-.24h-2a28.71,28.71,0,0,0-4,.24L191.08,72.4,179.6,33.83a17.85,17.85,0,0,0-2.18-.24Z"/></g><g id="layer2"><path class="cls-1" d="M49.5,14.86h-.22a15.4,15.4,0,0,0-7.55,2q-1.15.86-3.25,14.06a7.74,7.74,0,0,0-4.64,1.32q-3.51,3-4.26,5.12Q28.38,40.66,28,54.63q.13,9.52,1.28,14.09a16.21,16.21,0,0,0,4.23,8.11,9.48,9.48,0,0,0,7.22,1.78A15.7,15.7,0,0,0,47,84.73q5,2.38,10.7-1.18a9.67,9.67,0,0,0,2.79.71A6.88,6.88,0,0,0,62.4,85.6a9.26,9.26,0,0,0,3.3.9l1.74,1a5.3,5.3,0,0,0,1.65.25q6-.85,8.51-4a8.27,8.27,0,0,0,1.12-3.34,25.34,25.34,0,0,0,.41-5,4.81,4.81,0,0,0,.63-2c.21-.83-.13-2-1-3.58-.19-1.6-.51-3.56-1-5.86a26.79,26.79,0,0,0-.36-9.11q-2.73-15.47-3.74-18.64a36.34,36.34,0,0,0-1.65-5,6.31,6.31,0,0,0-1.63-2.52,43.54,43.54,0,0,0-2-5.28,9.45,9.45,0,0,0-2.26-3.26q-1.53-1.76-5-1.38c-1.78.19-3.34,1.28-4.7,3.27a22,22,0,0,0-.24-2.94,4.79,4.79,0,0,0-1.09-1.87q-1.66-2.12-5.6-2.32"/><path class="cls-1" d="M130.87,12h-.07a12.7,12.7,0,0,0-1.84.16,15,15,0,0,0-2.3.54,16.23,16.23,0,0,0-3.21,1.68,12.62,12.62,0,0,0-2.55,2,9.57,9.57,0,0,0-1.32,1.76,7.47,7.47,0,0,0-.6,1.28q-.8,3.79,1.36,5.85,2.37,2.24,6.93,2.2a22.88,22.88,0,0,0,4.65-.82,7.37,7.37,0,0,0,2.21-1.1,8.77,8.77,0,0,0,2.39-2.52,15,15,0,0,0,1.2-3.08,5.71,5.71,0,0,0,.08-2.83,6.43,6.43,0,0,0-1.35-2.88l-.48-.49A6.84,6.84,0,0,0,134.9,13a7.39,7.39,0,0,0-1.21-.56,8.19,8.19,0,0,0-2.82-.4"/></g><g id="layer3"><path d="M54.17,27.89l-.73,0a18.81,18.81,0,0,0-13.83,7.31q-7.26,10.94-7.18,21,.41,9.27,6.27,14.7,5.71,5.15,15,5.07a30.77,30.77,0,0,0,10.65-2.21q3.3-1.18,9.64-6-5,3.63-14,3.52T46.28,67.05a11.32,11.32,0,0,1-3.76-9.59q.33-5.15,5.34-12.31c.32-.6,1.91-2.06,4.76-4.4a4.5,4.5,0,0,1,3-.89,18,18,0,0,1,6.56,2.49,10.69,10.69,0,0,1,3.65,4.08L67,48.54a.15.15,0,0,1,0,.15,9.88,9.88,0,0,1-4.2,3,25.43,25.43,0,0,1-4.31,1.24l-9.82,1.6-1.6.14a2.93,2.93,0,0,0-2,.92,2.34,2.34,0,0,1-1.12,0A42.17,42.17,0,0,0,56.2,58.47q8.53.77,13.9-2.21c3.74-2.16,5.55-5,5.43-8.55a18.17,18.17,0,0,0-2.13-7.57,19.23,19.23,0,0,0-4.33-5.77q-7.41-6.54-14.9-6.48"/><path d="M131.22,7.6l-.08,0a8.41,8.41,0,0,0-6.81,1.8,11.65,11.65,0,0,0-3.45,13.9,9.52,9.52,0,0,0,5.56,4.2,8.88,8.88,0,0,0,6.39-.76,8.49,8.49,0,0,0,4.14-5,5.37,5.37,0,0,0-.85-4.24A9.68,9.68,0,0,0,132,14.4a5.52,5.52,0,0,1,3.1,3.25,3.74,3.74,0,0,1-.54,3.84,6.42,6.42,0,0,1-4.59,2.11,5.68,5.68,0,0,1-2.55-.78,4.33,4.33,0,0,1-1.23-1.58,12.91,12.91,0,0,0-.68-1.71,5.81,5.81,0,0,1-.21-.7,8.42,8.42,0,0,1-.25-2.25,8.28,8.28,0,0,1,1.7-4.43,7.1,7.1,0,0,1,3.66-2.4,4.27,4.27,0,0,1,1.39-.06,11,11,0,0,1,2.43.68c.13.07.35,0,.67-.15.06,0,.13,0,.22.1a6.9,6.9,0,0,0-3.86-2.72"/><path d="M36.43,82.31h-.19a23.21,23.21,0,0,0-10.94,3A10.19,10.19,0,0,0,20,92q-1.38,11.64,11.47,15.32A70.37,70.37,0,0,0,42,109.59a53.18,53.18,0,0,0,6.35.62l5.43.75c.64.08,3.6.28,8.85.6q3.11.25,10.82.27c2.94.21,4.71.3,5.29.28l9.79.1c2.11.16,3.94.26,5.49.28l7.89,0q6,.25,19.34.39l4.51.18q2.31,0,8.87,0,16.78-.06,20.25-.36l9.09-.9a22.48,22.48,0,0,0,5.34-1.39c3.29-1,4.76-2.9,4.38-5.59q-.62-2.77-7.46-4.28a73.09,73.09,0,0,0-12.06-1.28s-1.61.08-4.83.38c-2.55.06-4.4.15-5.57.26a16,16,0,0,0-3.64.67s.13,0,.5,0a12.22,12.22,0,0,0,2.77.74l5.62.67,5.47.29,4.65.78a40.11,40.11,0,0,1,9.21,2.53,16.78,16.78,0,0,1-4.71,1.08l-1.66.16q-4.05.07-8.87.51-4.6.12-19.27.08l-24.9-.31q-7-.3-15.17-.32l-6.39-.25-9.9-.14q-2.07-.21-4.14-.27l-8.59-.16q-1.32,0-9.59-.6c-.38,0-2.41-.25-6.09-.83l-3.63-.24q-4.34-.59-7.23-1.15a32.63,32.63,0,0,1-9-2.91,6,6,0,0,1-3.84-5.17,4.38,4.38,0,0,1,2.43-5,25.49,25.49,0,0,1,6.09-2.12,12.22,12.22,0,0,1,2.79-.2L39,88l4.53,1c.9.16,2.5.32,4.83.48q6,.45,23.58.59,3.93.3,6.56.36Q100.59,92,108.52,93c2.42,0,5.13.11,8.11.3q.84.09,14.5-.16c3.22.1,5.61.13,7.19.09s5.55-.13,12.07-.38q12.29-.09,13-.17,3.79-.1,6.58-.47a12.66,12.66,0,0,1,2.11.11c.58,0,.1-.32-1.46-.91q-10.9-1.49-18.48-2-3.39-.28-13.88-.71l-7.4-.46q-1.54-.09-13.29-.42c-2.56-.17-4.24-.27-5-.29l-3.73-.07q-7.65-1-29.93-2.63-1.84,0-7.19-.36-16.66,0-20.85-.37a61.55,61.55,0,0,1-11.23-1.67,23.76,23.76,0,0,0-3.21-.12"/></g></svg>